<svg viewBox="0 0 820 560" xmlns="http://www.w3.org/2000/svg" role="img" aria-label="パッケージ基板フルスタック断面図">
  <defs>
    <pattern id="p-circles" width="8" height="8" patternUnits="userSpaceOnUse">
      <rect width="8" height="8" fill="#9aa7bd"/>
      <circle cx="4" cy="4" r="2.2" fill="#6c7890"/>
    </pattern>
    <pattern id="p-lines" width="6" height="6" patternUnits="userSpaceOnUse" patternTransform="rotate(45)">
      <rect width="6" height="6" fill="#243f6e"/>
      <line x1="0" y1="0" x2="0" y2="6" stroke="#3a5a9a" stroke-width="2"/>
    </pattern>
    <pattern id="p-vlines" width="7" height="7" patternUnits="userSpaceOnUse">
      <rect width="7" height="7" fill="#0f1e3c"/>
      <line x1="3.5" y1="0" x2="3.5" y2="7" stroke="#ffd700" stroke-width="2.4"/>
    </pattern>
    <pattern id="p-tgv" width="7" height="7" patternUnits="userSpaceOnUse">
      <rect width="7" height="7" fill="#15303a"/>
      <line x1="3.5" y1="0" x2="3.5" y2="7" stroke="#7fd4e0" stroke-width="2.2"/>
    </pattern>
    <pattern id="p-grid" width="9" height="9" patternUnits="userSpaceOnUse">
      <rect width="9" height="9" fill="#3a9bb0"/>
      <path d="M9 0H0V9" fill="none" stroke="#2a7e90" stroke-width="1"/>
    </pattern>
    <pattern id="p-pcb" width="10" height="10" patternUnits="userSpaceOnUse">
      <rect width="10" height="10" fill="#243524"/>
      <path d="M10 0H0V10" fill="none" stroke="#3a5a3a" stroke-width="1"/>
    </pattern>
    <pattern id="p-dots" width="7" height="7" patternUnits="userSpaceOnUse">
      <rect width="7" height="7" fill="#3a5c3a"/>
      <circle cx="3.5" cy="3.5" r="1.1" fill="#5c8a5c"/>
    </pattern>
    <pattern id="p-hbond" width="6" height="6" patternUnits="userSpaceOnUse">
      <rect width="6" height="6" fill="#0a2a33"/>
      <line x1="0" y1="3" x2="6" y2="3" stroke="#00d9ff" stroke-width="1.6"/>
    </pattern>
  </defs><rect x="0" y="0" width="820" height="560" fill="#0f1e3c"/><text x="410.0" y="26" class="svg-label" text-anchor="middle" fill="#ffd700" style="font-size:14px;font-weight:bold">パッケージ基板 フルスタック断面 (基準図)</text><text x="410.0" y="42" class="svg-label-sm" text-anchor="middle">各部材にカーソルを合わせると解説 / 部材カードへ移動</text><g class="hot" data-term="m-ihs"><title>IHS / リッド (ヒートスプレッダ)</title><rect x="230" y="56" width="500" height="24" fill="#7d8da3" stroke="#0a1426" stroke-width="1"/></g><g class="hot" data-term="m-ihs"><title>IHS / リッド</title><text x="222" y="71.0" class="svg-label" text-anchor="end" fill="#cfe0ff" style="font-size:10.5px">IHS / リッド</text><line x1="226" y1="68.0" x2="236" y2="68.0" stroke="#cfe0ff" stroke-width="0.6" opacity="0.5"/></g><g class="hot" data-term="m-tim"><title>TIM (熱界面材)</title><rect x="230" y="80" width="500" height="11" fill="#a05c7a" stroke="#0a1426" stroke-width="1"/></g><g class="hot" data-term="m-tim"><title>TIM (熱界面材)</title><text x="222" y="88.5" class="svg-label" text-anchor="end" fill="#cfe0ff" style="font-size:10.5px">TIM (熱界面材)</text><line x1="226" y1="85.5" x2="236" y2="85.5" stroke="#cfe0ff" stroke-width="0.6" opacity="0.5"/></g><g class="hot" data-term="die_logic"><title>ロジックダイ (GPU/ASIC)</title><rect x="405.0" y="99" width="150" height="76" fill="#1d3563" stroke="#00d9ff" stroke-width="1.5"/><text x="480.0" y="137.0" class="svg-label" text-anchor="middle">ロジックダイ</text><text x="480.0" y="153.0" class="svg-label-sm" text-anchor="middle">GPU / ASIC</text></g><g class="hot" data-term="hbm-stack"><title>HBMスタック (DRAMコアダイ×N + ベースロジックダイ + TSV)</title><rect x="254" y="99.0" width="110" height="6.6" fill="#243f6e" stroke="#0a1426" stroke-width="0.4"/><rect x="254" y="106.2" width="110" height="6.6" fill="#243f6e" stroke="#0a1426" stroke-width="0.4"/><rect x="254" y="113.4" width="110" height="6.6" fill="#243f6e" stroke="#0a1426" stroke-width="0.4"/><rect x="254" y="120.6" width="110" height="6.6" fill="#243f6e" stroke="#0a1426" stroke-width="0.4"/><rect x="254" y="127.8" width="110" height="6.6" fill="#243f6e" stroke="#0a1426" stroke-width="0.4"/><rect x="254" y="135.0" width="110" height="6.6" fill="#243f6e" stroke="#0a1426" stroke-width="0.4"/><rect x="254" y="142.2" width="110" height="6.6" fill="#243f6e" stroke="#0a1426" stroke-width="0.4"/><rect x="254" y="149.4" width="110" height="6.6" fill="#243f6e" stroke="#0a1426" stroke-width="0.4"/><rect x="254" y="157" width="110" height="16" fill="#1a2a52" stroke="#00d9ff" stroke-width="0.8"/><line x1="270" y1="99" x2="270" y2="157" stroke="#ffd700" stroke-width="1.3"/><line x1="290" y1="99" x2="290" y2="157" stroke="#ffd700" stroke-width="1.3"/><line x1="310" y1="99" x2="310" y2="157" stroke="#ffd700" stroke-width="1.3"/><line x1="330" y1="99" x2="330" y2="157" stroke="#ffd700" stroke-width="1.3"/><line x1="350" y1="99" x2="350" y2="157" stroke="#ffd700" stroke-width="1.3"/><text x="309.0" y="94" class="svg-label-sm" text-anchor="middle" fill="#ffd700">HBM</text></g><g class="hot" data-term="hbm-stack"><title>HBMスタック (DRAMコアダイ×N + ベースロジックダイ + TSV)</title><rect x="596" y="99.0" width="110" height="6.6" fill="#243f6e" stroke="#0a1426" stroke-width="0.4"/><rect x="596" y="106.2" width="110" height="6.6" fill="#243f6e" stroke="#0a1426" stroke-width="0.4"/><rect x="596" y="113.4" width="110" height="6.6" fill="#243f6e" stroke="#0a1426" stroke-width="0.4"/><rect x="596" y="120.6" width="110" height="6.6" fill="#243f6e" stroke="#0a1426" stroke-width="0.4"/><rect x="596" y="127.8" width="110" height="6.6" fill="#243f6e" stroke="#0a1426" stroke-width="0.4"/><rect x="596" y="135.0" width="110" height="6.6" fill="#243f6e" stroke="#0a1426" stroke-width="0.4"/><rect x="596" y="142.2" width="110" height="6.6" fill="#243f6e" stroke="#0a1426" stroke-width="0.4"/><rect x="596" y="149.4" width="110" height="6.6" fill="#243f6e" stroke="#0a1426" stroke-width="0.4"/><rect x="596" y="157" width="110" height="16" fill="#1a2a52" stroke="#00d9ff" stroke-width="0.8"/><line x1="612" y1="99" x2="612" y2="157" stroke="#ffd700" stroke-width="1.3"/><line x1="632" y1="99" x2="632" y2="157" stroke="#ffd700" stroke-width="1.3"/><line x1="652" y1="99" x2="652" y2="157" stroke="#ffd700" stroke-width="1.3"/><line x1="672" y1="99" x2="672" y2="157" stroke="#ffd700" stroke-width="1.3"/><line x1="692" y1="99" x2="692" y2="157" stroke="#ffd700" stroke-width="1.3"/><text x="651.0" y="94" class="svg-label-sm" text-anchor="middle" fill="#ffd700">HBM</text></g><g class="hot" data-term="die_logic"><title>HBM + ダイ</title><text x="222" y="140.0" class="svg-label" text-anchor="end" fill="#9fe0ff" style="font-size:10.5px">HBM + ダイ</text><line x1="226" y1="137.0" x2="236" y2="137.0" stroke="#9fe0ff" stroke-width="0.6" opacity="0.5"/></g><g class="hot" data-term="m-hbond"><title>マイクロバンプ / ハイブリッドボンド界面</title><circle cx="247.24137931034483" cy="177" r="3" fill="#cfd8e6" stroke="#0a1426" stroke-width="0.6"/><circle cx="264.48275862068965" cy="177" r="3" fill="#cfd8e6" stroke="#0a1426" stroke-width="0.6"/><circle cx="281.7241379310345" cy="177" r="3" fill="#cfd8e6" stroke="#0a1426" stroke-width="0.6"/><circle cx="298.9655172413793" cy="177" r="3" fill="#cfd8e6" stroke="#0a1426" stroke-width="0.6"/><circle cx="316.2068965517241" cy="177" r="3" fill="#cfd8e6" stroke="#0a1426" stroke-width="0.6"/><circle cx="333.44827586206895" cy="177" r="3" fill="#cfd8e6" stroke="#0a1426" stroke-width="0.6"/><circle cx="350.68965517241384" cy="177" r="3" fill="#cfd8e6" stroke="#0a1426" stroke-width="0.6"/><circle cx="367.9310344827586" cy="177" r="3" fill="#cfd8e6" stroke="#0a1426" stroke-width="0.6"/><circle cx="385.1724137931035" cy="177" r="3" fill="#cfd8e6" stroke="#0a1426" stroke-width="0.6"/><circle cx="402.41379310344826" cy="177" r="3" fill="#cfd8e6" stroke="#0a1426" stroke-width="0.6"/><circle cx="419.65517241379314" cy="177" r="3" fill="#cfd8e6" stroke="#0a1426" stroke-width="0.6"/><circle cx="436.89655172413796" cy="177" r="3" fill="#cfd8e6" stroke="#0a1426" stroke-width="0.6"/><circle cx="454.1379310344828" cy="177" r="3" fill="#cfd8e6" stroke="#0a1426" stroke-width="0.6"/><circle cx="471.3793103448276" cy="177" r="3" fill="#cfd8e6" stroke="#0a1426" stroke-width="0.6"/><circle cx="488.62068965517244" cy="177" r="3" fill="#cfd8e6" stroke="#0a1426" stroke-width="0.6"/><circle cx="505.86206896551727" cy="177" r="3" fill="#cfd8e6" stroke="#0a1426" stroke-width="0.6"/><circle cx="523.1034482758621" cy="177" r="3" fill="#cfd8e6" stroke="#0a1426" stroke-width="0.6"/><circle cx="540.344827586207" cy="177" r="3" fill="#cfd8e6" stroke="#0a1426" stroke-width="0.6"/><circle cx="557.5862068965517" cy="177" r="3" fill="#cfd8e6" stroke="#0a1426" stroke-width="0.6"/><circle cx="574.8275862068965" cy="177" r="3" fill="#cfd8e6" stroke="#0a1426" stroke-width="0.6"/><circle cx="592.0689655172414" cy="177" r="3" fill="#cfd8e6" stroke="#0a1426" stroke-width="0.6"/><circle cx="609.3103448275863" cy="177" r="3" fill="#cfd8e6" stroke="#0a1426" stroke-width="0.6"/><circle cx="626.551724137931" cy="177" r="3" fill="#cfd8e6" stroke="#0a1426" stroke-width="0.6"/><circle cx="643.7931034482759" cy="177" r="3" fill="#cfd8e6" stroke="#0a1426" stroke-width="0.6"/><circle cx="661.0344827586207" cy="177" r="3" fill="#cfd8e6" stroke="#0a1426" stroke-width="0.6"/><circle cx="678.2758620689656" cy="177" r="3" fill="#cfd8e6" stroke="#0a1426" stroke-width="0.6"/><circle cx="695.5172413793105" cy="177" r="3" fill="#cfd8e6" stroke="#0a1426" stroke-width="0.6"/><circle cx="712.7586206896552" cy="177" r="3" fill="#cfd8e6" stroke="#0a1426" stroke-width="0.6"/></g><g class="hot" data-term="m-hbond"><title>μバンプ/HB</title><text x="222" y="184.0" class="svg-label" text-anchor="end" fill="#9fe0ff" style="font-size:10.5px">μバンプ/HB</text><line x1="226" y1="181.0" x2="236" y2="181.0" stroke="#9fe0ff" stroke-width="0.6" opacity="0.5"/></g><g class="hot" data-term="uf"><title>アンダーフィル</title><rect x="230" y="187" width="500" height="8" fill="#4a3f5c" stroke="#0a1426" stroke-width="1"/></g><g class="hot" data-term="uf"><title>アンダーフィル</title><text x="222" y="194.0" class="svg-label" text-anchor="end" fill="#cfe0ff" style="font-size:10.5px">アンダーフィル</text><line x1="226" y1="191.0" x2="236" y2="191.0" stroke="#cfe0ff" stroke-width="0.6" opacity="0.5"/></g><g class="hot" data-term="cowos"><title>Siインターポーザ (CoWoS-S)</title><rect x="230" y="195" width="500" height="32" fill="#2e6b8a" stroke="#0a1426" stroke-width="1"/></g><line x1="248" y1="195" x2="248" y2="227" stroke="#ffd700" stroke-width="1" opacity="0.6"/><line x1="278" y1="195" x2="278" y2="227" stroke="#ffd700" stroke-width="1" opacity="0.6"/><line x1="308" y1="195" x2="308" y2="227" stroke="#ffd700" stroke-width="1" opacity="0.6"/><line x1="338" y1="195" x2="338" y2="227" stroke="#ffd700" stroke-width="1" opacity="0.6"/><line x1="368" y1="195" x2="368" y2="227" stroke="#ffd700" stroke-width="1" opacity="0.6"/><line x1="398" y1="195" x2="398" y2="227" stroke="#ffd700" stroke-width="1" opacity="0.6"/><line x1="428" y1="195" x2="428" y2="227" stroke="#ffd700" stroke-width="1" opacity="0.6"/><line x1="458" y1="195" x2="458" y2="227" stroke="#ffd700" stroke-width="1" opacity="0.6"/><line x1="488" y1="195" x2="488" y2="227" stroke="#ffd700" stroke-width="1" opacity="0.6"/><line x1="518" y1="195" x2="518" y2="227" stroke="#ffd700" stroke-width="1" opacity="0.6"/><line x1="548" y1="195" x2="548" y2="227" stroke="#ffd700" stroke-width="1" opacity="0.6"/><line x1="578" y1="195" x2="578" y2="227" stroke="#ffd700" stroke-width="1" opacity="0.6"/><line x1="608" y1="195" x2="608" y2="227" stroke="#ffd700" stroke-width="1" opacity="0.6"/><line x1="638" y1="195" x2="638" y2="227" stroke="#ffd700" stroke-width="1" opacity="0.6"/><line x1="668" y1="195" x2="668" y2="227" stroke="#ffd700" stroke-width="1" opacity="0.6"/><line x1="698" y1="195" x2="698" y2="227" stroke="#ffd700" stroke-width="1" opacity="0.6"/><g class="hot" data-term="cowos"><title>Siインターポーザ</title><text x="222" y="214.0" class="svg-label" text-anchor="end" fill="#cfe0ff" style="font-size:10.5px">Siインターポーザ</text><line x1="226" y1="211.0" x2="236" y2="211.0" stroke="#cfe0ff" stroke-width="0.6" opacity="0.5"/></g><text x="480.0" y="215" class="svg-label-sm" text-anchor="middle" fill="#e8eefc">CoWoS-S: ダイ↔HBM高密度配線</text><g class="hot" data-term="c4"><title>C4バンプ (インターポーザ↔基板)</title><circle cx="253.8095238095238" cy="235" r="5" fill="#9aa7bd" stroke="#0a1426" stroke-width="0.6"/><circle cx="277.6190476190476" cy="235" r="5" fill="#9aa7bd" stroke="#0a1426" stroke-width="0.6"/><circle cx="301.42857142857144" cy="235" r="5" fill="#9aa7bd" stroke="#0a1426" stroke-width="0.6"/><circle cx="325.23809523809524" cy="235" r="5" fill="#9aa7bd" stroke="#0a1426" stroke-width="0.6"/><circle cx="349.04761904761904" cy="235" r="5" fill="#9aa7bd" stroke="#0a1426" stroke-width="0.6"/><circle cx="372.8571428571429" cy="235" r="5" fill="#9aa7bd" stroke="#0a1426" stroke-width="0.6"/><circle cx="396.6666666666667" cy="235" r="5" fill="#9aa7bd" stroke="#0a1426" stroke-width="0.6"/><circle cx="420.4761904761905" cy="235" r="5" fill="#9aa7bd" stroke="#0a1426" stroke-width="0.6"/><circle cx="444.2857142857143" cy="235" r="5" fill="#9aa7bd" stroke="#0a1426" stroke-width="0.6"/><circle cx="468.0952380952381" cy="235" r="5" fill="#9aa7bd" stroke="#0a1426" stroke-width="0.6"/><circle cx="491.9047619047619" cy="235" r="5" fill="#9aa7bd" stroke="#0a1426" stroke-width="0.6"/><circle cx="515.7142857142858" cy="235" r="5" fill="#9aa7bd" stroke="#0a1426" stroke-width="0.6"/><circle cx="539.5238095238095" cy="235" r="5" fill="#9aa7bd" stroke="#0a1426" stroke-width="0.6"/><circle cx="563.3333333333334" cy="235" r="5" fill="#9aa7bd" stroke="#0a1426" stroke-width="0.6"/><circle cx="587.1428571428571" cy="235" r="5" fill="#9aa7bd" stroke="#0a1426" stroke-width="0.6"/><circle cx="610.952380952381" cy="235" r="5" fill="#9aa7bd" stroke="#0a1426" stroke-width="0.6"/><circle cx="634.7619047619048" cy="235" r="5" fill="#9aa7bd" stroke="#0a1426" stroke-width="0.6"/><circle cx="658.5714285714286" cy="235" r="5" fill="#9aa7bd" stroke="#0a1426" stroke-width="0.6"/><circle cx="682.3809523809524" cy="235" r="5" fill="#9aa7bd" stroke="#0a1426" stroke-width="0.6"/><circle cx="706.1904761904761" cy="235" r="5" fill="#9aa7bd" stroke="#0a1426" stroke-width="0.6"/></g><g class="hot" data-term="c4"><title>C4バンプ</title><text x="222" y="239.0" class="svg-label" text-anchor="end" fill="#cfe0ff" style="font-size:10.5px">C4バンプ</text><line x1="226" y1="236.0" x2="236" y2="236.0" stroke="#cfe0ff" stroke-width="0.6" opacity="0.5"/></g><g class="hot" data-term="m-abf"><title>ABF ビルドアップ層 (上)</title><rect x="230" y="245" width="500" height="20" fill="#8a7d5a" stroke="#0a1426" stroke-width="1"/></g><g class="hot" data-term="m-abf"><title>ABF (上)</title><text x="222" y="258.0" class="svg-label" text-anchor="end" fill="#1a2233" style="font-size:10.5px">ABF (上)</text><line x1="226" y1="255.0" x2="236" y2="255.0" stroke="#1a2233" stroke-width="0.6" opacity="0.5"/></g><g class="hot" data-term="m-ccl"><title>CCL コア材 (ガラスクロス+樹脂+銅箔)</title><rect x="230" y="265" width="500" height="38" fill="#6b5b3e" stroke="#0a1426" stroke-width="1"/></g><g class="hot" data-term="m-ccl"><title>CCL コア材</title><text x="222" y="287.0" class="svg-label" text-anchor="end" fill="#cfe0ff" style="font-size:10.5px">CCL コア材</text><line x1="226" y1="284.0" x2="236" y2="284.0" stroke="#cfe0ff" stroke-width="0.6" opacity="0.5"/></g><text x="480.0" y="288" class="svg-label-sm" text-anchor="middle">基板の機械的な芯</text><g class="hot" data-term="m-abf"><title>ABF ビルドアップ層 (下)</title><rect x="230" y="303" width="500" height="20" fill="#8a7d5a" stroke="#0a1426" stroke-width="1"/></g><g class="hot" data-term="m-abf"><title>ABF (下)</title><text x="222" y="316.0" class="svg-label" text-anchor="end" fill="#1a2233" style="font-size:10.5px">ABF (下)</text><line x1="226" y1="313.0" x2="236" y2="313.0" stroke="#1a2233" stroke-width="0.6" opacity="0.5"/></g><g class="hot" data-term="sr"><title>ソルダーレジスト</title><rect x="230" y="323" width="500" height="7" fill="#3a5c3a" stroke="#0a1426" stroke-width="1"/></g><g class="hot" data-term="sr"><title>ソルダーレジスト</title><text x="222" y="329.5" class="svg-label" text-anchor="end" fill="#cfe0ff" style="font-size:10.5px">ソルダーレジスト</text><line x1="226" y1="326.5" x2="236" y2="326.5" stroke="#cfe0ff" stroke-width="0.6" opacity="0.5"/></g><g class="hot" data-term="m-mlcc"><title>MLCC (基板裏面 / ダイ直下 = LSC, 電源デカップリング)</title><rect x="420.0" y="336" width="24" height="15" fill="#b94a48" stroke="#0a1426" stroke-width="0.8"/><rect x="460.0" y="336" width="24" height="15" fill="#b94a48" stroke="#0a1426" stroke-width="0.8"/><rect x="500.0" y="336" width="24" height="15" fill="#b94a48" stroke="#0a1426" stroke-width="0.8"/><rect x="530.0" y="336" width="24" height="15" fill="#b94a48" stroke="#0a1426" stroke-width="0.8"/></g><g class="hot" data-term="m-mlcc"><title>MLCC (LSC)</title><text x="222" y="346.5" class="svg-label" text-anchor="end" fill="#ff9a98" style="font-size:10.5px">MLCC (LSC)</text><line x1="226" y1="343.5" x2="236" y2="343.5" stroke="#ff9a98" stroke-width="0.6" opacity="0.5"/></g><g class="hot" data-term="bga"><title>BGAボール (基板↔PCB)</title><circle cx="268.46153846153845" cy="346" r="7" fill="#9aa7bd" stroke="#0a1426"/><circle cx="306.9230769230769" cy="346" r="7" fill="#9aa7bd" stroke="#0a1426"/><circle cx="345.38461538461536" cy="346" r="7" fill="#9aa7bd" stroke="#0a1426"/><circle cx="383.8461538461538" cy="346" r="7" fill="#9aa7bd" stroke="#0a1426"/><circle cx="576.1538461538462" cy="346" r="7" fill="#9aa7bd" stroke="#0a1426"/><circle cx="614.6153846153845" cy="346" r="7" fill="#9aa7bd" stroke="#0a1426"/><circle cx="653.0769230769231" cy="346" r="7" fill="#9aa7bd" stroke="#0a1426"/><circle cx="691.5384615384615" cy="346" r="7" fill="#9aa7bd" stroke="#0a1426"/></g><g class="hot" data-term="bga"><title>BGAボール</title><text x="222" y="349.0" class="svg-label" text-anchor="end" fill="#cfe0ff" style="font-size:10.5px">BGAボール</text><line x1="226" y1="346.0" x2="236" y2="346.0" stroke="#cfe0ff" stroke-width="0.6" opacity="0.5"/></g><g class="hot" data-term="pcb"><title>PCB マザーボード</title><rect x="230" y="360" width="500" height="26" fill="url(#p-pcb)" stroke="#0a1426" stroke-width="1"/></g><g class="hot" data-term="pcb"><title>PCB マザーボード</title><text x="222" y="376.0" class="svg-label" text-anchor="end" fill="#cfe0cf" style="font-size:10.5px">PCB マザーボード</text><line x1="226" y1="373.0" x2="236" y2="373.0" stroke="#cfe0cf" stroke-width="0.6" opacity="0.5"/></g><line x1="746" y1="95" x2="746" y2="189" stroke="#00d9ff" stroke-width="2"/><text x="760" y="143.0" class="svg-label-sm" fill="#00d9ff" transform="rotate(90 760 143.0)" text-anchor="middle">垂直積層系(3D)</text><line x1="746" y1="193" x2="746" y2="386" stroke="#ffd700" stroke-width="2"/><text x="760" y="276.5" class="svg-label-sm" fill="#ffd700" transform="rotate(90 760 276.5)" text-anchor="middle">水平配線基盤系(2.5D/基板)</text></svg>