<svg viewBox="0 0 560 440" xmlns="http://www.w3.org/2000/svg" role="img" aria-label="HBM内部スタック断面">
  <defs>
    <pattern id="p-circles" width="8" height="8" patternUnits="userSpaceOnUse">
      <rect width="8" height="8" fill="#9aa7bd"/>
      <circle cx="4" cy="4" r="2.2" fill="#6c7890"/>
    </pattern>
    <pattern id="p-lines" width="6" height="6" patternUnits="userSpaceOnUse" patternTransform="rotate(45)">
      <rect width="6" height="6" fill="#243f6e"/>
      <line x1="0" y1="0" x2="0" y2="6" stroke="#3a5a9a" stroke-width="2"/>
    </pattern>
    <pattern id="p-vlines" width="7" height="7" patternUnits="userSpaceOnUse">
      <rect width="7" height="7" fill="#0f1e3c"/>
      <line x1="3.5" y1="0" x2="3.5" y2="7" stroke="#ffd700" stroke-width="2.4"/>
    </pattern>
    <pattern id="p-tgv" width="7" height="7" patternUnits="userSpaceOnUse">
      <rect width="7" height="7" fill="#15303a"/>
      <line x1="3.5" y1="0" x2="3.5" y2="7" stroke="#7fd4e0" stroke-width="2.2"/>
    </pattern>
    <pattern id="p-grid" width="9" height="9" patternUnits="userSpaceOnUse">
      <rect width="9" height="9" fill="#3a9bb0"/>
      <path d="M9 0H0V9" fill="none" stroke="#2a7e90" stroke-width="1"/>
    </pattern>
    <pattern id="p-pcb" width="10" height="10" patternUnits="userSpaceOnUse">
      <rect width="10" height="10" fill="#243524"/>
      <path d="M10 0H0V10" fill="none" stroke="#3a5a3a" stroke-width="1"/>
    </pattern>
    <pattern id="p-dots" width="7" height="7" patternUnits="userSpaceOnUse">
      <rect width="7" height="7" fill="#3a5c3a"/>
      <circle cx="3.5" cy="3.5" r="1.1" fill="#5c8a5c"/>
    </pattern>
    <pattern id="p-hbond" width="6" height="6" patternUnits="userSpaceOnUse">
      <rect width="6" height="6" fill="#0a2a33"/>
      <line x1="0" y1="3" x2="6" y2="3" stroke="#00d9ff" stroke-width="1.6"/>
    </pattern>
  </defs><rect width="560" height="440" fill="#0f1e3c"/><text x="280.0" y="26" class="svg-label" text-anchor="middle" fill="#ffd700" style="font-size:14px;font-weight:bold">HBM 内部スタック断面 (12-Hi 例)</text><g class="hot" data-term="hbm-dram"><title>DRAMコアダイ (層 12)</title><rect x="150" y="50" width="260" height="24" fill="#243f6e" stroke="#0a1426" stroke-width="0.6"/></g><circle cx="172" cy="74" r="2.4" fill="#cfd8e6"/><circle cx="196" cy="74" r="2.4" fill="#cfd8e6"/><circle cx="220" cy="74" r="2.4" fill="#cfd8e6"/><circle cx="244" cy="74" r="2.4" fill="#cfd8e6"/><circle cx="268" cy="74" r="2.4" fill="#cfd8e6"/><circle cx="292" cy="74" r="2.4" fill="#cfd8e6"/><circle cx="316" cy="74" r="2.4" fill="#cfd8e6"/><circle cx="340" cy="74" r="2.4" fill="#cfd8e6"/><circle cx="364" cy="74" r="2.4" fill="#cfd8e6"/><circle cx="388" cy="74" r="2.4" fill="#cfd8e6"/><g class="hot" data-term="hbm-dram"><title>DRAMコアダイ (層 11)</title><rect x="150" y="79" width="260" height="24" fill="#243f6e" stroke="#0a1426" stroke-width="0.6"/></g><circle cx="172" cy="103" r="2.4" fill="#cfd8e6"/><circle cx="196" cy="103" r="2.4" fill="#cfd8e6"/><circle cx="220" cy="103" r="2.4" fill="#cfd8e6"/><circle cx="244" cy="103" r="2.4" fill="#cfd8e6"/><circle cx="268" cy="103" r="2.4" fill="#cfd8e6"/><circle cx="292" cy="103" r="2.4" fill="#cfd8e6"/><circle cx="316" cy="103" r="2.4" fill="#cfd8e6"/><circle cx="340" cy="103" r="2.4" fill="#cfd8e6"/><circle cx="364" cy="103" r="2.4" fill="#cfd8e6"/><circle cx="388" cy="103" r="2.4" fill="#cfd8e6"/><g class="hot" data-term="hbm-dram"><title>DRAMコアダイ (層 10)</title><rect x="150" y="108" width="260" height="24" fill="#243f6e" stroke="#0a1426" stroke-width="0.6"/></g><circle cx="172" cy="132" r="2.4" fill="#cfd8e6"/><circle cx="196" cy="132" r="2.4" fill="#cfd8e6"/><circle cx="220" cy="132" r="2.4" fill="#cfd8e6"/><circle cx="244" cy="132" r="2.4" fill="#cfd8e6"/><circle cx="268" cy="132" r="2.4" fill="#cfd8e6"/><circle cx="292" cy="132" r="2.4" fill="#cfd8e6"/><circle cx="316" cy="132" r="2.4" fill="#cfd8e6"/><circle cx="340" cy="132" r="2.4" fill="#cfd8e6"/><circle cx="364" cy="132" r="2.4" fill="#cfd8e6"/><circle cx="388" cy="132" r="2.4" fill="#cfd8e6"/><g class="hot" data-term="hbm-dram"><title>DRAMコアダイ (層 9)</title><rect x="150" y="137" width="260" height="24" fill="#243f6e" stroke="#0a1426" stroke-width="0.6"/></g><circle cx="172" cy="161" r="2.4" fill="#cfd8e6"/><circle cx="196" cy="161" r="2.4" fill="#cfd8e6"/><circle cx="220" cy="161" r="2.4" fill="#cfd8e6"/><circle cx="244" cy="161" r="2.4" fill="#cfd8e6"/><circle cx="268" cy="161" r="2.4" fill="#cfd8e6"/><circle cx="292" cy="161" r="2.4" fill="#cfd8e6"/><circle cx="316" cy="161" r="2.4" fill="#cfd8e6"/><circle cx="340" cy="161" r="2.4" fill="#cfd8e6"/><circle cx="364" cy="161" r="2.4" fill="#cfd8e6"/><circle cx="388" cy="161" r="2.4" fill="#cfd8e6"/><g class="hot" data-term="hbm-dram"><title>DRAMコアダイ (層 8)</title><rect x="150" y="166" width="260" height="24" fill="#243f6e" stroke="#0a1426" stroke-width="0.6"/></g><circle cx="172" cy="190" r="2.4" fill="#cfd8e6"/><circle cx="196" cy="190" r="2.4" fill="#cfd8e6"/><circle cx="220" cy="190" r="2.4" fill="#cfd8e6"/><circle cx="244" cy="190" r="2.4" fill="#cfd8e6"/><circle cx="268" cy="190" r="2.4" fill="#cfd8e6"/><circle cx="292" cy="190" r="2.4" fill="#cfd8e6"/><circle cx="316" cy="190" r="2.4" fill="#cfd8e6"/><circle cx="340" cy="190" r="2.4" fill="#cfd8e6"/><circle cx="364" cy="190" r="2.4" fill="#cfd8e6"/><circle cx="388" cy="190" r="2.4" fill="#cfd8e6"/><g class="hot" data-term="hbm-dram"><title>DRAMコアダイ (層 7)</title><rect x="150" y="195" width="260" height="24" fill="#243f6e" stroke="#0a1426" stroke-width="0.6"/></g><circle cx="172" cy="219" r="2.4" fill="#cfd8e6"/><circle cx="196" cy="219" r="2.4" fill="#cfd8e6"/><circle cx="220" cy="219" r="2.4" fill="#cfd8e6"/><circle cx="244" cy="219" r="2.4" fill="#cfd8e6"/><circle cx="268" cy="219" r="2.4" fill="#cfd8e6"/><circle cx="292" cy="219" r="2.4" fill="#cfd8e6"/><circle cx="316" cy="219" r="2.4" fill="#cfd8e6"/><circle cx="340" cy="219" r="2.4" fill="#cfd8e6"/><circle cx="364" cy="219" r="2.4" fill="#cfd8e6"/><circle cx="388" cy="219" r="2.4" fill="#cfd8e6"/><g class="hot" data-term="hbm-dram"><title>DRAMコアダイ (層 6)</title><rect x="150" y="224" width="260" height="24" fill="#243f6e" stroke="#0a1426" stroke-width="0.6"/></g><circle cx="172" cy="248" r="2.4" fill="#cfd8e6"/><circle cx="196" cy="248" r="2.4" fill="#cfd8e6"/><circle cx="220" cy="248" r="2.4" fill="#cfd8e6"/><circle cx="244" cy="248" r="2.4" fill="#cfd8e6"/><circle cx="268" cy="248" r="2.4" fill="#cfd8e6"/><circle cx="292" cy="248" r="2.4" fill="#cfd8e6"/><circle cx="316" cy="248" r="2.4" fill="#cfd8e6"/><circle cx="340" cy="248" r="2.4" fill="#cfd8e6"/><circle cx="364" cy="248" r="2.4" fill="#cfd8e6"/><circle cx="388" cy="248" r="2.4" fill="#cfd8e6"/><g class="hot" data-term="hbm-dram"><title>DRAMコアダイ (層 5)</title><rect x="150" y="253" width="260" height="24" fill="#243f6e" stroke="#0a1426" stroke-width="0.6"/></g><circle cx="172" cy="277" r="2.4" fill="#cfd8e6"/><circle cx="196" cy="277" r="2.4" fill="#cfd8e6"/><circle cx="220" cy="277" r="2.4" fill="#cfd8e6"/><circle cx="244" cy="277" r="2.4" fill="#cfd8e6"/><circle cx="268" cy="277" r="2.4" fill="#cfd8e6"/><circle cx="292" cy="277" r="2.4" fill="#cfd8e6"/><circle cx="316" cy="277" r="2.4" fill="#cfd8e6"/><circle cx="340" cy="277" r="2.4" fill="#cfd8e6"/><circle cx="364" cy="277" r="2.4" fill="#cfd8e6"/><circle cx="388" cy="277" r="2.4" fill="#cfd8e6"/><g class="hot" data-term="hbm-dram"><title>DRAMコアダイ (層 4)</title><rect x="150" y="282" width="260" height="24" fill="#243f6e" stroke="#0a1426" stroke-width="0.6"/></g><circle cx="172" cy="306" r="2.4" fill="#cfd8e6"/><circle cx="196" cy="306" r="2.4" fill="#cfd8e6"/><circle cx="220" cy="306" r="2.4" fill="#cfd8e6"/><circle cx="244" cy="306" r="2.4" fill="#cfd8e6"/><circle cx="268" cy="306" r="2.4" fill="#cfd8e6"/><circle cx="292" cy="306" r="2.4" fill="#cfd8e6"/><circle cx="316" cy="306" r="2.4" fill="#cfd8e6"/><circle cx="340" cy="306" r="2.4" fill="#cfd8e6"/><circle cx="364" cy="306" r="2.4" fill="#cfd8e6"/><circle cx="388" cy="306" r="2.4" fill="#cfd8e6"/><g class="hot" data-term="hbm-dram"><title>DRAMコアダイ (層 3)</title><rect x="150" y="311" width="260" height="24" fill="#243f6e" stroke="#0a1426" stroke-width="0.6"/></g><circle cx="172" cy="335" r="2.4" fill="#cfd8e6"/><circle cx="196" cy="335" r="2.4" fill="#cfd8e6"/><circle cx="220" cy="335" r="2.4" fill="#cfd8e6"/><circle cx="244" cy="335" r="2.4" fill="#cfd8e6"/><circle cx="268" cy="335" r="2.4" fill="#cfd8e6"/><circle cx="292" cy="335" r="2.4" fill="#cfd8e6"/><circle cx="316" cy="335" r="2.4" fill="#cfd8e6"/><circle cx="340" cy="335" r="2.4" fill="#cfd8e6"/><circle cx="364" cy="335" r="2.4" fill="#cfd8e6"/><circle cx="388" cy="335" r="2.4" fill="#cfd8e6"/><g class="hot" data-term="hbm-dram"><title>DRAMコアダイ (層 2)</title><rect x="150" y="340" width="260" height="24" fill="#243f6e" stroke="#0a1426" stroke-width="0.6"/></g><circle cx="172" cy="364" r="2.4" fill="#cfd8e6"/><circle cx="196" cy="364" r="2.4" fill="#cfd8e6"/><circle cx="220" cy="364" r="2.4" fill="#cfd8e6"/><circle cx="244" cy="364" r="2.4" fill="#cfd8e6"/><circle cx="268" cy="364" r="2.4" fill="#cfd8e6"/><circle cx="292" cy="364" r="2.4" fill="#cfd8e6"/><circle cx="316" cy="364" r="2.4" fill="#cfd8e6"/><circle cx="340" cy="364" r="2.4" fill="#cfd8e6"/><circle cx="364" cy="364" r="2.4" fill="#cfd8e6"/><circle cx="388" cy="364" r="2.4" fill="#cfd8e6"/><g class="hot" data-term="hbm-dram"><title>DRAMコアダイ (層 1)</title><rect x="150" y="369" width="260" height="24" fill="#243f6e" stroke="#0a1426" stroke-width="0.6"/></g><g class="hot" data-term="hbm-base"><title>ベースロジックダイ (PHY/コントローラ)</title><rect x="150" y="398" width="260" height="30" fill="#1a2a52" stroke="#00d9ff" stroke-width="1.4"/><text x="280.0" y="417" class="svg-label-sm" text-anchor="middle" fill="#00d9ff">ベースロジックダイ (PHY)</text></g><line x1="168.0" y1="50" x2="168.0" y2="398" stroke="#ffd700" stroke-width="1.3" opacity="0.85"/><line x1="190.5" y1="50" x2="190.5" y2="398" stroke="#ffd700" stroke-width="1.3" opacity="0.85"/><line x1="213.0" y1="50" x2="213.0" y2="398" stroke="#ffd700" stroke-width="1.3" opacity="0.85"/><line x1="235.5" y1="50" x2="235.5" y2="398" stroke="#ffd700" stroke-width="1.3" opacity="0.85"/><line x1="258.0" y1="50" x2="258.0" y2="398" stroke="#ffd700" stroke-width="1.3" opacity="0.85"/><line x1="280.5" y1="50" x2="280.5" y2="398" stroke="#ffd700" stroke-width="1.3" opacity="0.85"/><line x1="303.0" y1="50" x2="303.0" y2="398" stroke="#ffd700" stroke-width="1.3" opacity="0.85"/><line x1="325.5" y1="50" x2="325.5" y2="398" stroke="#ffd700" stroke-width="1.3" opacity="0.85"/><line x1="348.0" y1="50" x2="348.0" y2="398" stroke="#ffd700" stroke-width="1.3" opacity="0.85"/><line x1="370.5" y1="50" x2="370.5" y2="398" stroke="#ffd700" stroke-width="1.3" opacity="0.85"/><line x1="393.0" y1="50" x2="393.0" y2="398" stroke="#ffd700" stroke-width="1.3" opacity="0.85"/><text x="426" y="200" class="svg-label-sm" fill="#ffd700">TSVが全層を貫通</text><text x="138" y="60" class="svg-label-sm" text-anchor="end" fill="#7fb">上層</text><g class="hot" data-term="c4"><title>C4バンプ</title><circle cx="173.63636363636363" cy="436" r="4" fill="#9aa7bd" stroke="#0a1426" stroke-width="0.6"/><circle cx="197.27272727272728" cy="436" r="4" fill="#9aa7bd" stroke="#0a1426" stroke-width="0.6"/><circle cx="220.9090909090909" cy="436" r="4" fill="#9aa7bd" stroke="#0a1426" stroke-width="0.6"/><circle cx="244.54545454545456" cy="436" r="4" fill="#9aa7bd" stroke="#0a1426" stroke-width="0.6"/><circle cx="268.1818181818182" cy="436" r="4" fill="#9aa7bd" stroke="#0a1426" stroke-width="0.6"/><circle cx="291.8181818181818" cy="436" r="4" fill="#9aa7bd" stroke="#0a1426" stroke-width="0.6"/><circle cx="315.4545454545455" cy="436" r="4" fill="#9aa7bd" stroke="#0a1426" stroke-width="0.6"/><circle cx="339.0909090909091" cy="436" r="4" fill="#9aa7bd" stroke="#0a1426" stroke-width="0.6"/><circle cx="362.72727272727275" cy="436" r="4" fill="#9aa7bd" stroke="#0a1426" stroke-width="0.6"/><circle cx="386.3636363636364" cy="436" r="4" fill="#9aa7bd" stroke="#0a1426" stroke-width="0.6"/></g><text x="280.0" y="458" class="svg-label-sm" text-anchor="middle">→ インターポーザへ</text></svg>