<svg viewBox="0 0 760 360" xmlns="http://www.w3.org/2000/svg" role="img" aria-label="インターポーザ3方式比較断面">
  <defs>
    <pattern id="p-circles" width="8" height="8" patternUnits="userSpaceOnUse">
      <rect width="8" height="8" fill="#9aa7bd"/>
      <circle cx="4" cy="4" r="2.2" fill="#6c7890"/>
    </pattern>
    <pattern id="p-lines" width="6" height="6" patternUnits="userSpaceOnUse" patternTransform="rotate(45)">
      <rect width="6" height="6" fill="#243f6e"/>
      <line x1="0" y1="0" x2="0" y2="6" stroke="#3a5a9a" stroke-width="2"/>
    </pattern>
    <pattern id="p-vlines" width="7" height="7" patternUnits="userSpaceOnUse">
      <rect width="7" height="7" fill="#0f1e3c"/>
      <line x1="3.5" y1="0" x2="3.5" y2="7" stroke="#ffd700" stroke-width="2.4"/>
    </pattern>
    <pattern id="p-tgv" width="7" height="7" patternUnits="userSpaceOnUse">
      <rect width="7" height="7" fill="#15303a"/>
      <line x1="3.5" y1="0" x2="3.5" y2="7" stroke="#7fd4e0" stroke-width="2.2"/>
    </pattern>
    <pattern id="p-grid" width="9" height="9" patternUnits="userSpaceOnUse">
      <rect width="9" height="9" fill="#3a9bb0"/>
      <path d="M9 0H0V9" fill="none" stroke="#2a7e90" stroke-width="1"/>
    </pattern>
    <pattern id="p-pcb" width="10" height="10" patternUnits="userSpaceOnUse">
      <rect width="10" height="10" fill="#243524"/>
      <path d="M10 0H0V10" fill="none" stroke="#3a5a3a" stroke-width="1"/>
    </pattern>
    <pattern id="p-dots" width="7" height="7" patternUnits="userSpaceOnUse">
      <rect width="7" height="7" fill="#3a5c3a"/>
      <circle cx="3.5" cy="3.5" r="1.1" fill="#5c8a5c"/>
    </pattern>
    <pattern id="p-hbond" width="6" height="6" patternUnits="userSpaceOnUse">
      <rect width="6" height="6" fill="#0a2a33"/>
      <line x1="0" y1="3" x2="6" y2="3" stroke="#00d9ff" stroke-width="1.6"/>
    </pattern>
  </defs><rect width="760" height="360" fill="#0f1e3c"/><text x="380.0" y="24" class="svg-label" text-anchor="middle" fill="#ffd700" style="font-size:14px;font-weight:bold">インターポーザ / 基板 3方式比較 (同一スケール)</text><g class="hot" data-term="die_logic"><title>ロジックダイ + HBM</title><rect x="50" y="60" width="130" height="34" fill="#1d3563" stroke="#00d9ff"/><rect x="190" y="60" width="44" height="34" fill="#243f6e" stroke="#0a1426"/><text x="140.0" y="82" class="svg-label-sm" text-anchor="middle">die + HBM</text></g><g class="hot" data-term="m-hbond"><title>μbump</title><circle cx="57.5" cy="100" r="3" fill="#cfd8e6" stroke="#0a1426" stroke-width="0.6"/><circle cx="85.0" cy="100" r="3" fill="#cfd8e6" stroke="#0a1426" stroke-width="0.6"/><circle cx="112.5" cy="100" r="3" fill="#cfd8e6" stroke="#0a1426" stroke-width="0.6"/><circle cx="140.0" cy="100" r="3" fill="#cfd8e6" stroke="#0a1426" stroke-width="0.6"/><circle cx="167.5" cy="100" r="3" fill="#cfd8e6" stroke="#0a1426" stroke-width="0.6"/><circle cx="195.0" cy="100" r="3" fill="#cfd8e6" stroke="#0a1426" stroke-width="0.6"/><circle cx="222.5" cy="100" r="3" fill="#cfd8e6" stroke="#0a1426" stroke-width="0.6"/></g><g class="hot" data-term="cowos"><title>CoWoS-S
Siインターポーザ</title><rect x="30" y="112" width="220" height="44" fill="#2e6b8a" stroke="#0a1426"/></g><line x1="44" y1="112" x2="44" y2="156" stroke="#ffd700" stroke-width="1.2"/><line x1="66" y1="112" x2="66" y2="156" stroke="#ffd700" stroke-width="1.2"/><line x1="88" y1="112" x2="88" y2="156" stroke="#ffd700" stroke-width="1.2"/><line x1="110" y1="112" x2="110" y2="156" stroke="#ffd700" stroke-width="1.2"/><line x1="132" y1="112" x2="132" y2="156" stroke="#ffd700" stroke-width="1.2"/><line x1="154" y1="112" x2="154" y2="156" stroke="#ffd700" stroke-width="1.2"/><line x1="176" y1="112" x2="176" y2="156" stroke="#ffd700" stroke-width="1.2"/><line x1="198" y1="112" x2="198" y2="156" stroke="#ffd700" stroke-width="1.2"/><line x1="220" y1="112" x2="220" y2="156" stroke="#ffd700" stroke-width="1.2"/><line x1="242" y1="112" x2="242" y2="156" stroke="#ffd700" stroke-width="1.2"/><text x="140.0" y="138" class="svg-label-sm" text-anchor="middle">TSV</text><g class="hot" data-term="c4"><title>C4バンプ</title><circle cx="50.0" cy="164" r="4" fill="#9aa7bd" stroke="#0a1426" stroke-width="0.6"/><circle cx="70.0" cy="164" r="4" fill="#9aa7bd" stroke="#0a1426" stroke-width="0.6"/><circle cx="90.0" cy="164" r="4" fill="#9aa7bd" stroke="#0a1426" stroke-width="0.6"/><circle cx="110.0" cy="164" r="4" fill="#9aa7bd" stroke="#0a1426" stroke-width="0.6"/><circle cx="130.0" cy="164" r="4" fill="#9aa7bd" stroke="#0a1426" stroke-width="0.6"/><circle cx="150.0" cy="164" r="4" fill="#9aa7bd" stroke="#0a1426" stroke-width="0.6"/><circle cx="170.0" cy="164" r="4" fill="#9aa7bd" stroke="#0a1426" stroke-width="0.6"/><circle cx="190.0" cy="164" r="4" fill="#9aa7bd" stroke="#0a1426" stroke-width="0.6"/><circle cx="210.0" cy="164" r="4" fill="#9aa7bd" stroke="#0a1426" stroke-width="0.6"/><circle cx="230.0" cy="164" r="4" fill="#9aa7bd" stroke="#0a1426" stroke-width="0.6"/></g><rect x="30" y="172" width="220" height="20" fill="#6b5b3e" stroke="#0a1426"/><text x="140.0" y="186" class="svg-label-sm" text-anchor="middle">基板 (CCL/ABF)</text><text x="140.0" y="222" class="svg-label" text-anchor="middle" fill="#9aa7bd">CoWoS-S</text><text x="140.0" y="238" class="svg-label" text-anchor="middle" fill="#9aa7bd">Siインターポーザ</text><text x="140.0" y="262" class="svg-label-sm" text-anchor="middle">現行主流。最高密度だが</text><text x="140.0" y="277" class="svg-label-sm" text-anchor="middle">面積=コスト・歩留り制約</text><g class="hot" data-term="die_logic"><title>ロジックダイ + HBM</title><rect x="296" y="60" width="130" height="34" fill="#1d3563" stroke="#00d9ff"/><rect x="436" y="60" width="44" height="34" fill="#243f6e" stroke="#0a1426"/><text x="386.0" y="82" class="svg-label-sm" text-anchor="middle">die + HBM</text></g><g class="hot" data-term="m-hbond"><title>μbump</title><circle cx="303.5" cy="100" r="3" fill="#cfd8e6" stroke="#0a1426" stroke-width="0.6"/><circle cx="331.0" cy="100" r="3" fill="#cfd8e6" stroke="#0a1426" stroke-width="0.6"/><circle cx="358.5" cy="100" r="3" fill="#cfd8e6" stroke="#0a1426" stroke-width="0.6"/><circle cx="386.0" cy="100" r="3" fill="#cfd8e6" stroke="#0a1426" stroke-width="0.6"/><circle cx="413.5" cy="100" r="3" fill="#cfd8e6" stroke="#0a1426" stroke-width="0.6"/><circle cx="441.0" cy="100" r="3" fill="#cfd8e6" stroke="#0a1426" stroke-width="0.6"/><circle cx="468.5" cy="100" r="3" fill="#cfd8e6" stroke="#0a1426" stroke-width="0.6"/></g><g class="hot" data-term="glass-int"><title>ガラスインターポーザ
(CoPoS)</title><rect x="276" y="112" width="220" height="44" fill="url(#p-grid)" stroke="#0a1426"/></g><line x1="294" y1="112" x2="294" y2="156" stroke="#7fd4e0" stroke-width="1.6"/><line x1="320" y1="112" x2="320" y2="156" stroke="#7fd4e0" stroke-width="1.6"/><line x1="346" y1="112" x2="346" y2="156" stroke="#7fd4e0" stroke-width="1.6"/><line x1="372" y1="112" x2="372" y2="156" stroke="#7fd4e0" stroke-width="1.6"/><line x1="398" y1="112" x2="398" y2="156" stroke="#7fd4e0" stroke-width="1.6"/><line x1="424" y1="112" x2="424" y2="156" stroke="#7fd4e0" stroke-width="1.6"/><line x1="450" y1="112" x2="450" y2="156" stroke="#7fd4e0" stroke-width="1.6"/><line x1="476" y1="112" x2="476" y2="156" stroke="#7fd4e0" stroke-width="1.6"/><text x="386.0" y="138" class="svg-label-sm" text-anchor="middle" fill="#0f1e3c">TGV</text><g class="hot" data-term="c4"><title>C4バンプ</title><circle cx="296.0" cy="164" r="4" fill="#9aa7bd" stroke="#0a1426" stroke-width="0.6"/><circle cx="316.0" cy="164" r="4" fill="#9aa7bd" stroke="#0a1426" stroke-width="0.6"/><circle cx="336.0" cy="164" r="4" fill="#9aa7bd" stroke="#0a1426" stroke-width="0.6"/><circle cx="356.0" cy="164" r="4" fill="#9aa7bd" stroke="#0a1426" stroke-width="0.6"/><circle cx="376.0" cy="164" r="4" fill="#9aa7bd" stroke="#0a1426" stroke-width="0.6"/><circle cx="396.0" cy="164" r="4" fill="#9aa7bd" stroke="#0a1426" stroke-width="0.6"/><circle cx="416.0" cy="164" r="4" fill="#9aa7bd" stroke="#0a1426" stroke-width="0.6"/><circle cx="436.0" cy="164" r="4" fill="#9aa7bd" stroke="#0a1426" stroke-width="0.6"/><circle cx="456.0" cy="164" r="4" fill="#9aa7bd" stroke="#0a1426" stroke-width="0.6"/><circle cx="476.0" cy="164" r="4" fill="#9aa7bd" stroke="#0a1426" stroke-width="0.6"/></g><rect x="276" y="172" width="220" height="20" fill="#6b5b3e" stroke="#0a1426"/><text x="386.0" y="186" class="svg-label-sm" text-anchor="middle">基板 (CCL/ABF)</text><text x="386.0" y="222" class="svg-label" text-anchor="middle" fill="#7fd4e0">ガラスインターポーザ</text><text x="386.0" y="238" class="svg-label" text-anchor="middle" fill="#7fd4e0">(CoPoS)</text><text x="386.0" y="262" class="svg-label-sm" text-anchor="middle">大面積・低損失・低CTE</text><text x="386.0" y="277" class="svg-label-sm" text-anchor="middle">2028-29量産見込 (spec)</text><g class="hot" data-term="die_logic"><title>ロジックダイ + HBM</title><rect x="542" y="60" width="130" height="34" fill="#1d3563" stroke="#00d9ff"/><rect x="682" y="60" width="44" height="34" fill="#243f6e" stroke="#0a1426"/><text x="632.0" y="82" class="svg-label-sm" text-anchor="middle">die + HBM</text></g><g class="hot" data-term="m-hbond"><title>μbump</title><circle cx="549.5" cy="100" r="3" fill="#cfd8e6" stroke="#0a1426" stroke-width="0.6"/><circle cx="577.0" cy="100" r="3" fill="#cfd8e6" stroke="#0a1426" stroke-width="0.6"/><circle cx="604.5" cy="100" r="3" fill="#cfd8e6" stroke="#0a1426" stroke-width="0.6"/><circle cx="632.0" cy="100" r="3" fill="#cfd8e6" stroke="#0a1426" stroke-width="0.6"/><circle cx="659.5" cy="100" r="3" fill="#cfd8e6" stroke="#0a1426" stroke-width="0.6"/><circle cx="687.0" cy="100" r="3" fill="#cfd8e6" stroke="#0a1426" stroke-width="0.6"/><circle cx="714.5" cy="100" r="3" fill="#cfd8e6" stroke="#0a1426" stroke-width="0.6"/></g><g class="hot" data-term="org-sub"><title>有機ABF基板のみ
(インターポーザレス)</title><rect x="522" y="112" width="220" height="44" fill="#8a7d5a" stroke="#0a1426"/></g><text x="632.0" y="138" class="svg-label-sm" text-anchor="middle" fill="#0f1e3c">ABF/CCL</text><g class="hot" data-term="c4"><title>C4バンプ</title><circle cx="542.0" cy="164" r="4" fill="#9aa7bd" stroke="#0a1426" stroke-width="0.6"/><circle cx="562.0" cy="164" r="4" fill="#9aa7bd" stroke="#0a1426" stroke-width="0.6"/><circle cx="582.0" cy="164" r="4" fill="#9aa7bd" stroke="#0a1426" stroke-width="0.6"/><circle cx="602.0" cy="164" r="4" fill="#9aa7bd" stroke="#0a1426" stroke-width="0.6"/><circle cx="622.0" cy="164" r="4" fill="#9aa7bd" stroke="#0a1426" stroke-width="0.6"/><circle cx="642.0" cy="164" r="4" fill="#9aa7bd" stroke="#0a1426" stroke-width="0.6"/><circle cx="662.0" cy="164" r="4" fill="#9aa7bd" stroke="#0a1426" stroke-width="0.6"/><circle cx="682.0" cy="164" r="4" fill="#9aa7bd" stroke="#0a1426" stroke-width="0.6"/><circle cx="702.0" cy="164" r="4" fill="#9aa7bd" stroke="#0a1426" stroke-width="0.6"/><circle cx="722.0" cy="164" r="4" fill="#9aa7bd" stroke="#0a1426" stroke-width="0.6"/></g><rect x="522" y="172" width="220" height="20" fill="#6b5b3e" stroke="#0a1426"/><text x="632.0" y="186" class="svg-label-sm" text-anchor="middle">基板 (CCL/ABF)</text><text x="632.0" y="222" class="svg-label" text-anchor="middle" fill="#cbb98a">有機ABF基板のみ</text><text x="632.0" y="238" class="svg-label" text-anchor="middle" fill="#cbb98a">(インターポーザレス)</text><text x="632.0" y="262" class="svg-label-sm" text-anchor="middle">低コスト。大型化で反り</text><text x="632.0" y="277" class="svg-label-sm" text-anchor="middle">限界。EMIBで補完</text></svg>