<svg viewBox="0 0 820 400" xmlns="http://www.w3.org/2000/svg" role="img" aria-label="scale-up と scale-out">
  <defs>
    <pattern id="p-circles" width="8" height="8" patternUnits="userSpaceOnUse">
      <rect width="8" height="8" fill="#9aa7bd"/>
      <circle cx="4" cy="4" r="2.2" fill="#6c7890"/>
    </pattern>
    <pattern id="p-lines" width="6" height="6" patternUnits="userSpaceOnUse" patternTransform="rotate(45)">
      <rect width="6" height="6" fill="#243f6e"/>
      <line x1="0" y1="0" x2="0" y2="6" stroke="#3a5a9a" stroke-width="2"/>
    </pattern>
    <pattern id="p-vlines" width="7" height="7" patternUnits="userSpaceOnUse">
      <rect width="7" height="7" fill="#0f1e3c"/>
      <line x1="3.5" y1="0" x2="3.5" y2="7" stroke="#ffd700" stroke-width="2.4"/>
    </pattern>
    <pattern id="p-tgv" width="7" height="7" patternUnits="userSpaceOnUse">
      <rect width="7" height="7" fill="#15303a"/>
      <line x1="3.5" y1="0" x2="3.5" y2="7" stroke="#7fd4e0" stroke-width="2.2"/>
    </pattern>
    <pattern id="p-grid" width="9" height="9" patternUnits="userSpaceOnUse">
      <rect width="9" height="9" fill="#3a9bb0"/>
      <path d="M9 0H0V9" fill="none" stroke="#2a7e90" stroke-width="1"/>
    </pattern>
    <pattern id="p-pcb" width="10" height="10" patternUnits="userSpaceOnUse">
      <rect width="10" height="10" fill="#243524"/>
      <path d="M10 0H0V10" fill="none" stroke="#3a5a3a" stroke-width="1"/>
    </pattern>
    <pattern id="p-dots" width="7" height="7" patternUnits="userSpaceOnUse">
      <rect width="7" height="7" fill="#3a5c3a"/>
      <circle cx="3.5" cy="3.5" r="1.1" fill="#5c8a5c"/>
    </pattern>
    <pattern id="p-hbond" width="6" height="6" patternUnits="userSpaceOnUse">
      <rect width="6" height="6" fill="#0a2a33"/>
      <line x1="0" y1="3" x2="6" y2="3" stroke="#00d9ff" stroke-width="1.6"/>
    </pattern>
  </defs><rect width="820" height="400" fill="#0f1e3c"/><text x="410.0" y="26" class="svg-label" text-anchor="middle" fill="#ffd700" style="font-size:14px;font-weight:bold">scale-up (L6) と scale-out (L7) の違い</text><text x="210" y="58" class="svg-label" text-anchor="middle" fill="#00d9ff">scale-up = ラック内をGPU同士で密結合</text><rect x="90" y="74" width="240" height="220" rx="8" fill="#16305c" stroke="#00d9ff" stroke-width="1" opacity="0.6"/><text x="210" y="92" class="svg-label-sm" text-anchor="middle" fill="#9fb6d6">1ラック (NVL72 / Helios)</text><line x1="137" y1="123" x2="217" y2="123" stroke="#00d9ff" stroke-width="0.5" opacity="0.35"/><line x1="137" y1="123" x2="297" y2="123" stroke="#00d9ff" stroke-width="0.5" opacity="0.35"/><line x1="137" y1="123" x2="137" y2="193" stroke="#00d9ff" stroke-width="0.5" opacity="0.35"/><line x1="137" y1="123" x2="217" y2="193" stroke="#00d9ff" stroke-width="0.5" opacity="0.35"/><line x1="137" y1="123" x2="297" y2="193" stroke="#00d9ff" stroke-width="0.5" opacity="0.35"/><line x1="137" y1="123" x2="137" y2="263" stroke="#00d9ff" stroke-width="0.5" opacity="0.35"/><line x1="137" y1="123" x2="217" y2="263" stroke="#00d9ff" stroke-width="0.5" opacity="0.35"/><line x1="137" y1="123" x2="297" y2="263" stroke="#00d9ff" stroke-width="0.5" opacity="0.35"/><line x1="217" y1="123" x2="297" y2="123" stroke="#00d9ff" stroke-width="0.5" opacity="0.35"/><line x1="217" y1="123" x2="137" y2="193" stroke="#00d9ff" stroke-width="0.5" opacity="0.35"/><line x1="217" y1="123" x2="217" y2="193" stroke="#00d9ff" stroke-width="0.5" opacity="0.35"/><line x1="217" y1="123" x2="297" y2="193" stroke="#00d9ff" stroke-width="0.5" opacity="0.35"/><line x1="217" y1="123" x2="137" y2="263" stroke="#00d9ff" stroke-width="0.5" opacity="0.35"/><line x1="217" y1="123" x2="217" y2="263" stroke="#00d9ff" stroke-width="0.5" opacity="0.35"/><line x1="217" y1="123" x2="297" y2="263" stroke="#00d9ff" stroke-width="0.5" opacity="0.35"/><line x1="297" y1="123" x2="137" y2="193" stroke="#00d9ff" stroke-width="0.5" opacity="0.35"/><line x1="297" y1="123" x2="217" y2="193" stroke="#00d9ff" stroke-width="0.5" opacity="0.35"/><line x1="297" y1="123" x2="297" y2="193" stroke="#00d9ff" stroke-width="0.5" opacity="0.35"/><line x1="297" y1="123" x2="137" y2="263" stroke="#00d9ff" stroke-width="0.5" opacity="0.35"/><line x1="297" y1="123" x2="217" y2="263" stroke="#00d9ff" stroke-width="0.5" opacity="0.35"/><line x1="297" y1="123" x2="297" y2="263" stroke="#00d9ff" stroke-width="0.5" opacity="0.35"/><line x1="137" y1="193" x2="217" y2="193" stroke="#00d9ff" stroke-width="0.5" opacity="0.35"/><line x1="137" y1="193" x2="297" y2="193" stroke="#00d9ff" stroke-width="0.5" opacity="0.35"/><line x1="137" y1="193" x2="137" y2="263" stroke="#00d9ff" stroke-width="0.5" opacity="0.35"/><line x1="137" y1="193" x2="217" y2="263" stroke="#00d9ff" stroke-width="0.5" opacity="0.35"/><line x1="137" y1="193" x2="297" y2="263" stroke="#00d9ff" stroke-width="0.5" opacity="0.35"/><line x1="217" y1="193" x2="297" y2="193" stroke="#00d9ff" stroke-width="0.5" opacity="0.35"/><line x1="217" y1="193" x2="137" y2="263" stroke="#00d9ff" stroke-width="0.5" opacity="0.35"/><line x1="217" y1="193" x2="217" y2="263" stroke="#00d9ff" stroke-width="0.5" opacity="0.35"/><line x1="217" y1="193" x2="297" y2="263" stroke="#00d9ff" stroke-width="0.5" opacity="0.35"/><line x1="297" y1="193" x2="137" y2="263" stroke="#00d9ff" stroke-width="0.5" opacity="0.35"/><line x1="297" y1="193" x2="217" y2="263" stroke="#00d9ff" stroke-width="0.5" opacity="0.35"/><line x1="297" y1="193" x2="297" y2="263" stroke="#00d9ff" stroke-width="0.5" opacity="0.35"/><line x1="137" y1="263" x2="217" y2="263" stroke="#00d9ff" stroke-width="0.5" opacity="0.35"/><line x1="137" y1="263" x2="297" y2="263" stroke="#00d9ff" stroke-width="0.5" opacity="0.35"/><line x1="217" y1="263" x2="297" y2="263" stroke="#00d9ff" stroke-width="0.5" opacity="0.35"/><rect x="120" y="110" width="34" height="26" rx="3" fill="#1d3563" stroke="#00d9ff" stroke-width="0.8"/><text x="137" y="127" class="svg-label-sm" text-anchor="middle" fill="#cfe0ff">GPU</text><rect x="200" y="110" width="34" height="26" rx="3" fill="#1d3563" stroke="#00d9ff" stroke-width="0.8"/><text x="217" y="127" class="svg-label-sm" text-anchor="middle" fill="#cfe0ff">GPU</text><rect x="280" y="110" width="34" height="26" rx="3" fill="#1d3563" stroke="#00d9ff" stroke-width="0.8"/><text x="297" y="127" class="svg-label-sm" text-anchor="middle" fill="#cfe0ff">GPU</text><rect x="120" y="180" width="34" height="26" rx="3" fill="#1d3563" stroke="#00d9ff" stroke-width="0.8"/><text x="137" y="197" class="svg-label-sm" text-anchor="middle" fill="#cfe0ff">GPU</text><rect x="200" y="180" width="34" height="26" rx="3" fill="#1d3563" stroke="#00d9ff" stroke-width="0.8"/><text x="217" y="197" class="svg-label-sm" text-anchor="middle" fill="#cfe0ff">GPU</text><rect x="280" y="180" width="34" height="26" rx="3" fill="#1d3563" stroke="#00d9ff" stroke-width="0.8"/><text x="297" y="197" class="svg-label-sm" text-anchor="middle" fill="#cfe0ff">GPU</text><rect x="120" y="250" width="34" height="26" rx="3" fill="#1d3563" stroke="#00d9ff" stroke-width="0.8"/><text x="137" y="267" class="svg-label-sm" text-anchor="middle" fill="#cfe0ff">GPU</text><rect x="200" y="250" width="34" height="26" rx="3" fill="#1d3563" stroke="#00d9ff" stroke-width="0.8"/><text x="217" y="267" class="svg-label-sm" text-anchor="middle" fill="#cfe0ff">GPU</text><rect x="280" y="250" width="34" height="26" rx="3" fill="#1d3563" stroke="#00d9ff" stroke-width="0.8"/><text x="297" y="267" class="svg-label-sm" text-anchor="middle" fill="#cfe0ff">GPU</text><text x="210" y="312" class="svg-label-sm" text-anchor="middle" fill="#00d9ff">NVLink / UALink ・銅・最高帯域・最短距離</text><text x="610" y="58" class="svg-label" text-anchor="middle" fill="#c792ea">scale-out = ラック/クラスタ間を結ぶ</text><rect x="560" y="80" width="100" height="24" rx="4" fill="#3a2e5c" stroke="#c792ea"/><text x="610" y="96" class="svg-label-sm" text-anchor="middle" fill="#c792ea">スイッチ (Tomahawk等)</text><rect x="452" y="150" width="60" height="120" rx="5" fill="#16305c" stroke="#c792ea" stroke-width="0.8" opacity="0.6"/><rect x="460" y="160" width="44" height="20" rx="2" fill="#1d3563" stroke="#00d9ff" stroke-width="0.5"/><rect x="460" y="200" width="44" height="20" rx="2" fill="#1d3563" stroke="#00d9ff" stroke-width="0.5"/><rect x="460" y="240" width="44" height="20" rx="2" fill="#1d3563" stroke="#00d9ff" stroke-width="0.5"/><line x1="482" y1="150" x2="610" y2="104" stroke="#c792ea" stroke-width="1" stroke-dasharray="4 3"/><text x="482" y="284" class="svg-label-sm" text-anchor="middle" fill="#9fb6d6">ラック</text><rect x="547" y="150" width="60" height="120" rx="5" fill="#16305c" stroke="#c792ea" stroke-width="0.8" opacity="0.6"/><rect x="555" y="160" width="44" height="20" rx="2" fill="#1d3563" stroke="#00d9ff" stroke-width="0.5"/><rect x="555" y="200" width="44" height="20" rx="2" fill="#1d3563" stroke="#00d9ff" stroke-width="0.5"/><rect x="555" y="240" width="44" height="20" rx="2" fill="#1d3563" stroke="#00d9ff" stroke-width="0.5"/><line x1="577" y1="150" x2="610" y2="104" stroke="#c792ea" stroke-width="1" stroke-dasharray="4 3"/><text x="577" y="284" class="svg-label-sm" text-anchor="middle" fill="#9fb6d6">ラック</text><rect x="642" y="150" width="60" height="120" rx="5" fill="#16305c" stroke="#c792ea" stroke-width="0.8" opacity="0.6"/><rect x="650" y="160" width="44" height="20" rx="2" fill="#1d3563" stroke="#00d9ff" stroke-width="0.5"/><rect x="650" y="200" width="44" height="20" rx="2" fill="#1d3563" stroke="#00d9ff" stroke-width="0.5"/><rect x="650" y="240" width="44" height="20" rx="2" fill="#1d3563" stroke="#00d9ff" stroke-width="0.5"/><line x1="672" y1="150" x2="610" y2="104" stroke="#c792ea" stroke-width="1" stroke-dasharray="4 3"/><text x="672" y="284" class="svg-label-sm" text-anchor="middle" fill="#9fb6d6">ラック</text><rect x="737" y="150" width="60" height="120" rx="5" fill="#16305c" stroke="#c792ea" stroke-width="0.8" opacity="0.6"/><rect x="745" y="160" width="44" height="20" rx="2" fill="#1d3563" stroke="#00d9ff" stroke-width="0.5"/><rect x="745" y="200" width="44" height="20" rx="2" fill="#1d3563" stroke="#00d9ff" stroke-width="0.5"/><rect x="745" y="240" width="44" height="20" rx="2" fill="#1d3563" stroke="#00d9ff" stroke-width="0.5"/><line x1="767" y1="150" x2="610" y2="104" stroke="#c792ea" stroke-width="1" stroke-dasharray="4 3"/><text x="767" y="284" class="svg-label-sm" text-anchor="middle" fill="#9fb6d6">ラック</text><text x="610" y="312" class="svg-label-sm" text-anchor="middle" fill="#c792ea">Ethernet/UEC・InfiniBand・光・10万GPU+規模</text><text x="410.0" y="350" class="svg-label-sm" text-anchor="middle" fill="#cfe0ff">同じ"GPUを繋ぐ"でも、ラック内(密・近)と ラック間(疎・遠)で技術も投資プレイヤーも別。CPOはまずscale-upから光化する。</text></svg>